<svg width="32" height="32" viewBox="0 0 32 32" fill="none" xmlns="http://www.w3.org/2000/svg">
<g clip-path="url(#clip0)">
<path fill-rule="evenodd" clip-rule="evenodd" d="M22.5019 0.136395C22.6977 0.249872 22.8491 0.426375 22.9316 0.63707C23.0141 0.847765 23.0226 1.0802 22.9559 1.2964L19.3539 13.0004H25.9999C26.1952 13.0003 26.3863 13.0574 26.5495 13.1647C26.7127 13.272 26.841 13.4247 26.9184 13.604C26.9958 13.7833 27.019 13.9813 26.9852 14.1737C26.9513 14.3661 26.8619 14.5443 26.7279 14.6864L10.7279 31.6864C10.5731 31.851 10.3671 31.9584 10.1435 31.9909C9.91983 32.0235 9.69177 31.9793 9.49645 31.8656C9.30113 31.752 9.15007 31.5755 9.06789 31.365C8.98571 31.1545 8.97726 30.9223 9.04391 30.7064L12.6459 19.0004H5.99991C5.8046 19.0005 5.61354 18.9434 5.45032 18.8361C5.2871 18.7288 5.15886 18.5761 5.08144 18.3968C5.00402 18.2175 4.9808 18.0194 5.01464 17.8271C5.04849 17.6347 5.13793 17.4565 5.27191 17.3144L21.2719 0.314395C21.4265 0.149993 21.6322 0.0427324 21.8555 0.0100523C22.0789 -0.0226278 22.3067 0.0211949 22.5019 0.134395V0.136395ZM8.31391 17.0004H13.9999C14.1564 17.0004 14.3107 17.0371 14.4505 17.1075C14.5902 17.178 14.7114 17.2803 14.8044 17.4062C14.8974 17.532 14.9596 17.678 14.9859 17.8323C15.0122 17.9865 15.0019 18.1448 14.9559 18.2944L12.2199 27.1804L23.6839 15.0004H17.9999C17.8434 15.0004 17.6891 14.9637 17.5494 14.8932C17.4096 14.8228 17.2884 14.7205 17.1954 14.5946C17.1024 14.4687 17.0403 14.3228 17.014 14.1685C16.9876 14.0143 16.9979 13.856 17.0439 13.7064L19.7799 4.8204L8.31391 17.0004Z" fill="black"/>
</g>
<defs>
<clipPath id="clip0">
<rect width="32" height="32" fill="white"/>
</clipPath>
</defs>
</svg>
