<svg width="20" height="20" viewBox="0 0 20 20" fill="none" xmlns="http://www.w3.org/2000/svg">
<path d="M15.4056 19.6889C15.2187 19.6884 15.0325 19.6679 14.85 19.6278C11.3759 18.9092 8.17534 17.2242 5.61667 14.7667C3.1126 12.3039 1.37589 9.16817 0.616669 5.73895C0.527148 5.31156 0.54912 4.86833 0.680472 4.4519C0.811823 4.03547 1.04813 3.65984 1.36667 3.36117L3.58889 1.22228C3.7024 1.11494 3.83726 1.03274 3.98468 0.981049C4.1321 0.929356 4.28876 0.909331 4.44445 0.922281C4.60587 0.939122 4.76165 0.991122 4.90082 1.07462C5.03999 1.15813 5.15918 1.27111 5.25 1.40561L8.02778 5.51117C8.13195 5.67047 8.18223 5.859 8.17123 6.04902C8.16023 6.23904 8.08853 6.42051 7.96667 6.56673L6.57223 8.23339C7.12759 9.46253 7.91408 10.5734 8.88889 11.5056C9.85739 12.4716 11.0021 13.2429 12.2611 13.7778L13.9889 12.4056C14.134 12.2909 14.3106 12.2231 14.4952 12.2112C14.6797 12.1993 14.8636 12.2439 15.0222 12.3389L19.2167 15.0501C19.3606 15.136 19.4832 15.2534 19.5754 15.3935C19.6675 15.5335 19.7267 15.6926 19.7486 15.8588C19.7705 16.025 19.7546 16.194 19.7019 16.3532C19.6492 16.5124 19.5612 16.6575 19.4444 16.7778L17.2778 18.9223C17.0317 19.1672 16.7395 19.361 16.4182 19.4926C16.0969 19.6242 15.7528 19.6909 15.4056 19.6889ZM4.35556 2.02228L2.13334 4.16117C1.95414 4.32814 1.8215 4.53888 1.74844 4.77266C1.67538 5.00644 1.66443 5.25521 1.71667 5.4945C2.42263 8.71236 4.0454 11.6569 6.38889 13.9723C8.79678 16.2843 11.8087 17.8692 15.0778 18.5445C15.3252 18.5962 15.5816 18.5858 15.824 18.514C16.0664 18.4423 16.2872 18.3115 16.4667 18.1334L18.6333 15.9889L14.5833 13.3723L12.7278 14.8501C12.6567 14.9063 12.573 14.9443 12.484 14.9607C12.3949 14.9772 12.3031 14.9716 12.2167 14.9445C10.6759 14.3768 9.2797 13.4757 8.12778 12.3056C6.93631 11.193 6.01146 9.82562 5.42222 8.30561C5.3973 8.21359 5.39647 8.11671 5.41982 8.02428C5.44317 7.93184 5.48992 7.84698 5.55556 7.77784L7.05556 5.98339L4.35556 2.02228Z" fill="#8897A1"/>
</svg>
