<svg width="1064" height="1293" viewBox="0 0 1064 1293" fill="none" xmlns="http://www.w3.org/2000/svg">
<circle cx="417.5" cy="646.5" r="646.5" fill="#00E75B"/>
<mask id="mask0" mask-type="alpha" maskUnits="userSpaceOnUse" x="-229" y="0" width="1293" height="1293">
<rect x="-229" width="1293" height="1293" rx="646.5" fill="#C4C4C4"/>
</mask>
<g mask="url(#mask0)">
<path d="M-10.2401 -173L33.6321 -96.8656L77.5042 -173H148.924L68.3217 -50.6411L146.203 68.3189H74.7835L33.6321 -4.41666L-7.51935 68.3189H-79.2792L-1.39765 -50.6411L-82 -173H-10.2401Z" fill="#00EC5D"/>
<path d="M213.279 -173L257.151 -96.8656L301.023 -173H372.443L291.841 -50.6411L369.722 68.3189H298.302L257.151 -4.41666L216 68.3189H144.24L222.121 -50.6411L141.519 -173H213.279Z" fill="#00EC5D"/>
<path d="M436.798 -173L480.67 -96.8656L524.542 -173H595.962L515.36 -50.6411L593.241 68.3189H521.821L480.67 -4.41666L439.519 68.3189H367.759L445.64 -50.6411L365.038 -173H436.798Z" fill="#00EC5D"/>
<path d="M660.317 -173L704.189 -96.8656L748.061 -173H819.481L738.879 -50.6411L816.76 68.3189H745.34L704.189 -4.41666L663.038 68.3189H591.278L669.159 -50.6411L588.557 -173H660.317Z" fill="#00EC5D"/>
<path d="M883.836 -173L927.708 -96.8656L971.58 -173H1043L962.398 -50.6411L1040.28 68.3189H968.859L927.708 -4.41666L886.557 68.3189H814.797L892.678 -50.6411L812.076 -173H883.836Z" fill="#00EC5D"/>
<path d="M-10.2401 225.894L33.6321 302.028L77.5042 225.894H148.924L68.3217 348.253L146.203 467.213H74.7835L33.6321 394.477L-7.51935 467.213H-79.2792L-1.39765 348.253L-82 225.894H-10.2401Z" fill="#00EC5D"/>
<path d="M213.279 225.894L257.151 302.028L301.023 225.894H372.443L291.841 348.253L369.722 467.213H298.302L257.151 394.477L216 467.213H144.24L222.121 348.253L141.519 225.894H213.279Z" fill="#00EC5D"/>
<path d="M436.798 225.894L480.67 302.028L524.542 225.894H595.962L515.36 348.253L593.241 467.213H521.821L480.67 394.477L439.519 467.213H367.759L445.64 348.253L365.038 225.894H436.798Z" fill="#00EC5D"/>
<path d="M660.317 225.894L704.189 302.028L748.061 225.894H819.481L738.879 348.253L816.76 467.213H745.34L704.189 394.477L663.038 467.213H591.278L669.159 348.253L588.557 225.894H660.317Z" fill="#00EC5D"/>
<path d="M883.836 225.894L927.708 302.028L971.58 225.894H1043L962.398 348.253L1040.28 467.213H968.859L927.708 394.477L886.557 467.213H814.797L892.678 348.253L812.076 225.894H883.836Z" fill="#00EC5D"/>
<path d="M-10.2401 624.787L33.6321 700.922L77.5042 624.787H148.924L68.3217 747.146L146.203 866.106H74.7835L33.6321 793.371L-7.51935 866.106H-79.2792L-1.39765 747.146L-82 624.787H-10.2401Z" fill="#00EC5D"/>
<path d="M213.279 624.787L257.151 700.922L301.023 624.787H372.443L291.841 747.146L369.722 866.106H298.302L257.151 793.371L216 866.106H144.24L222.121 747.146L141.519 624.787H213.279Z" fill="#00EC5D"/>
<path d="M436.798 624.787L480.67 700.922L524.542 624.787H595.962L515.36 747.146L593.241 866.106H521.821L480.67 793.371L439.519 866.106H367.759L445.64 747.146L365.038 624.787H436.798Z" fill="#00EC5D"/>
<path d="M660.317 624.787L704.189 700.922L748.061 624.787H819.481L738.879 747.146L816.76 866.106H745.34L704.189 793.371L663.038 866.106H591.278L669.159 747.146L588.557 624.787H660.317Z" fill="#00EC5D"/>
<path d="M883.836 624.787L927.708 700.922L971.58 624.787H1043L962.398 747.146L1040.28 866.106H968.859L927.708 793.371L886.557 866.106H814.797L892.678 747.146L812.076 624.787H883.836Z" fill="#00EC5D"/>
<path d="M-10.2401 1023.68L33.6321 1099.82L77.5042 1023.68H148.924L68.3217 1146.04L146.203 1265H74.7835L33.6321 1192.26L-7.51935 1265H-79.2792L-1.39765 1146.04L-82 1023.68H-10.2401Z" fill="#00EC5D"/>
<path d="M213.279 1023.68L257.151 1099.82L301.023 1023.68H372.443L291.841 1146.04L369.722 1265H298.302L257.151 1192.26L216 1265H144.24L222.121 1146.04L141.519 1023.68H213.279Z" fill="#00EC5D"/>
<path d="M436.798 1023.68L480.67 1099.82L524.542 1023.68H595.962L515.36 1146.04L593.241 1265H521.821L480.67 1192.26L439.519 1265H367.759L445.64 1146.04L365.038 1023.68H436.798Z" fill="#00EC5D"/>
<path d="M660.317 1023.68L704.189 1099.82L748.061 1023.68H819.481L738.879 1146.04L816.76 1265H745.34L704.189 1192.26L663.038 1265H591.278L669.159 1146.04L588.557 1023.68H660.317Z" fill="#00EC5D"/>
<path d="M883.836 1023.68L927.708 1099.82L971.58 1023.68H1043L962.398 1146.04L1040.28 1265H968.859L927.708 1192.26L886.557 1265H814.797L892.678 1146.04L812.076 1023.68H883.836Z" fill="#00EC5D"/>
<path d="M-10.2401 -376L33.6321 -299.813L77.5042 -376H148.924L68.3217 -253.556L146.203 -134.513H74.7835L33.6321 -207.299L-7.51935 -134.513H-79.2792L-1.39765 -253.556L-82 -376H-10.2401Z" fill="#00EC5D"/>
<path d="M213.279 -376L257.151 -299.813L301.023 -376H372.443L291.841 -253.556L369.722 -134.513H298.302L257.151 -207.299L216 -134.513H144.24L222.121 -253.556L141.519 -376H213.279Z" fill="#00EC5D"/>
<path d="M436.798 -376L480.67 -299.813L524.542 -376H595.962L515.36 -253.556L593.241 -134.513H521.821L480.67 -207.299L439.519 -134.513H367.759L445.64 -253.556L365.038 -376H436.798Z" fill="#00EC5D"/>
<path d="M660.317 -376L704.189 -299.813L748.061 -376H819.481L738.879 -253.556L816.76 -134.513H745.34L704.189 -207.299L663.038 -134.513H591.278L669.159 -253.556L588.557 -376H660.317Z" fill="#00EC5D"/>
<path d="M883.836 -376L927.708 -299.813L971.58 -376H1043L962.398 -253.556L1040.28 -134.513H968.859L927.708 -207.299L886.557 -134.513H814.797L892.678 -253.556L812.076 -376H883.836Z" fill="#00EC5D"/>
<path d="M-10.2401 23.1711L33.6321 99.3585L77.5042 23.1711H148.924L68.3217 145.615L146.203 264.658H74.7835L33.6321 191.872L-7.51935 264.658H-79.2792L-1.39765 145.615L-82 23.1711H-10.2401Z" fill="#00EC5D"/>
<path d="M213.279 23.1711L257.151 99.3585L301.023 23.1711H372.443L291.841 145.615L369.722 264.658H298.302L257.151 191.872L216 264.658H144.24L222.121 145.615L141.519 23.1711H213.279Z" fill="#00EC5D"/>
<path d="M436.798 23.1711L480.67 99.3585L524.542 23.1711H595.962L515.36 145.615L593.241 264.658H521.821L480.67 191.872L439.519 264.658H367.759L445.64 145.615L365.038 23.1711H436.798Z" fill="#00EC5D"/>
<path d="M660.317 23.1711L704.189 99.3585L748.061 23.1711H819.481L738.879 145.615L816.76 264.658H745.34L704.189 191.872L663.038 264.658H591.278L669.159 145.615L588.557 23.1711H660.317Z" fill="#00EC5D"/>
<path d="M883.836 23.1711L927.708 99.3585L971.58 23.1711H1043L962.398 145.615L1040.28 264.658H968.859L927.708 191.872L886.557 264.658H814.797L892.678 145.615L812.076 23.1711H883.836Z" fill="#00EC5D"/>
<path d="M-10.2401 422.342L33.6321 498.53L77.5042 422.342H148.924L68.3217 544.786L146.203 663.829H74.7835L33.6321 591.043L-7.51935 663.829H-79.2792L-1.39765 544.786L-82 422.342H-10.2401Z" fill="#00EC5D"/>
<path d="M213.279 422.342L257.151 498.53L301.023 422.342H372.443L291.841 544.786L369.722 663.829H298.302L257.151 591.043L216 663.829H144.24L222.121 544.786L141.519 422.342H213.279Z" fill="#00EC5D"/>
<path d="M436.798 422.342L480.67 498.53L524.542 422.342H595.962L515.36 544.786L593.241 663.829H521.821L480.67 591.043L439.519 663.829H367.759L445.64 544.786L365.038 422.342H436.798Z" fill="#00EC5D"/>
<path d="M660.317 422.342L704.189 498.53L748.061 422.342H819.481L738.879 544.786L816.76 663.829H745.34L704.189 591.043L663.038 663.829H591.278L669.159 544.786L588.557 422.342H660.317Z" fill="#00EC5D"/>
<path d="M883.836 422.342L927.708 498.53L971.58 422.342H1043L962.398 544.786L1040.28 663.829H968.859L927.708 591.043L886.557 663.829H814.797L892.678 544.786L812.076 422.342H883.836Z" fill="#00EC5D"/>
<path d="M-10.2401 821.513L33.6321 897.701L77.5042 821.513H148.924L68.3217 943.957L146.203 1063H74.7835L33.6321 990.214L-7.51935 1063H-79.2792L-1.39765 943.957L-82 821.513H-10.2401Z" fill="#00EC5D"/>
<path d="M213.279 821.513L257.151 897.701L301.023 821.513H372.443L291.841 943.957L369.722 1063H298.302L257.151 990.214L216 1063H144.24L222.121 943.957L141.519 821.513H213.279Z" fill="#00EC5D"/>
<path d="M436.798 821.513L480.67 897.701L524.542 821.513H595.962L515.36 943.957L593.241 1063H521.821L480.67 990.214L439.519 1063H367.759L445.64 943.957L365.038 821.513H436.798Z" fill="#00EC5D"/>
<path d="M660.317 821.513L704.189 897.701L748.061 821.513H819.481L738.879 943.957L816.76 1063H745.34L704.189 990.214L663.038 1063H591.278L669.159 943.957L588.557 821.513H660.317Z" fill="#00EC5D"/>
<path d="M883.836 821.513L927.708 897.701L971.58 821.513H1043L962.398 943.957L1040.28 1063H968.859L927.708 990.214L886.557 1063H814.797L892.678 943.957L812.076 821.513H883.836Z" fill="#00EC5D"/>
<path d="M-10.2401 1216L33.6321 1292.13L77.5042 1216H148.924L68.3217 1338.36L146.203 1457.32H74.7835L33.6321 1384.58L-7.51935 1457.32H-79.2792L-1.39765 1338.36L-82 1216H-10.2401Z" fill="#00EC5D"/>
<path d="M213.279 1216L257.151 1292.13L301.023 1216H372.443L291.841 1338.36L369.722 1457.32H298.302L257.151 1384.58L216 1457.32H144.24L222.121 1338.36L141.519 1216H213.279Z" fill="#00EC5D"/>
<path d="M436.798 1216L480.67 1292.13L524.542 1216H595.962L515.36 1338.36L593.241 1457.32H521.821L480.67 1384.58L439.519 1457.32H367.759L445.64 1338.36L365.038 1216H436.798Z" fill="#00EC5D"/>
<path d="M660.317 1216L704.189 1292.13L748.061 1216H819.481L738.879 1338.36L816.76 1457.32H745.34L704.189 1384.58L663.038 1457.32H591.278L669.159 1338.36L588.557 1216H660.317Z" fill="#00EC5D"/>
<path d="M883.836 1216L927.708 1292.13L971.58 1216H1043L962.398 1338.36L1040.28 1457.32H968.859L927.708 1384.58L886.557 1457.32H814.797L892.678 1338.36L812.076 1216H883.836Z" fill="#00EC5D"/>
<path d="M-10.2401 1614.89L33.6321 1691.03L77.5042 1614.89H148.924L68.3217 1737.25L146.203 1856.21H74.7835L33.6321 1783.48L-7.51935 1856.21H-79.2792L-1.39765 1737.25L-82 1614.89H-10.2401Z" fill="#00EC5D"/>
<path d="M213.279 1614.89L257.151 1691.03L301.023 1614.89H372.443L291.841 1737.25L369.722 1856.21H298.302L257.151 1783.48L216 1856.21H144.24L222.121 1737.25L141.519 1614.89H213.279Z" fill="#00EC5D"/>
<path d="M436.798 1614.89L480.67 1691.03L524.542 1614.89H595.962L515.36 1737.25L593.241 1856.21H521.821L480.67 1783.48L439.519 1856.21H367.759L445.64 1737.25L365.038 1614.89H436.798Z" fill="#00EC5D"/>
<path d="M660.317 1614.89L704.189 1691.03L748.061 1614.89H819.481L738.879 1737.25L816.76 1856.21H745.34L704.189 1783.48L663.038 1856.21H591.278L669.159 1737.25L588.557 1614.89H660.317Z" fill="#00EC5D"/>
<path d="M883.836 1614.89L927.708 1691.03L971.58 1614.89H1043L962.398 1737.25L1040.28 1856.21H968.859L927.708 1783.48L886.557 1856.21H814.797L892.678 1737.25L812.076 1614.89H883.836Z" fill="#00EC5D"/>
<path d="M-10.2401 2013.79L33.6321 2089.92L77.5042 2013.79H148.924L68.3217 2136.15L146.203 2255.11H74.7835L33.6321 2182.37L-7.51935 2255.11H-79.2792L-1.39765 2136.15L-82 2013.79H-10.2401Z" fill="#00EC5D"/>
<path d="M213.279 2013.79L257.151 2089.92L301.023 2013.79H372.443L291.841 2136.15L369.722 2255.11H298.302L257.151 2182.37L216 2255.11H144.24L222.121 2136.15L141.519 2013.79H213.279Z" fill="#00EC5D"/>
<path d="M436.798 2013.79L480.67 2089.92L524.542 2013.79H595.962L515.36 2136.15L593.241 2255.11H521.821L480.67 2182.37L439.519 2255.11H367.759L445.64 2136.15L365.038 2013.79H436.798Z" fill="#00EC5D"/>
<path d="M660.317 2013.79L704.189 2089.92L748.061 2013.79H819.481L738.879 2136.15L816.76 2255.11H745.34L704.189 2182.37L663.038 2255.11H591.278L669.159 2136.15L588.557 2013.79H660.317Z" fill="#00EC5D"/>
<path d="M883.836 2013.79L927.708 2089.92L971.58 2013.79H1043L962.398 2136.15L1040.28 2255.11H968.859L927.708 2182.37L886.557 2255.11H814.797L892.678 2136.15L812.076 2013.79H883.836Z" fill="#00EC5D"/>
<path d="M-10.2401 2412.68L33.6321 2488.82L77.5042 2412.68H148.924L68.3217 2535.04L146.203 2654H74.7835L33.6321 2581.26L-7.51935 2654H-79.2792L-1.39765 2535.04L-82 2412.68H-10.2401Z" fill="#00EC5D"/>
<path d="M213.279 2412.68L257.151 2488.82L301.023 2412.68H372.443L291.841 2535.04L369.722 2654H298.302L257.151 2581.26L216 2654H144.24L222.121 2535.04L141.519 2412.68H213.279Z" fill="#00EC5D"/>
<path d="M436.798 2412.68L480.67 2488.82L524.542 2412.68H595.962L515.36 2535.04L593.241 2654H521.821L480.67 2581.26L439.519 2654H367.759L445.64 2535.04L365.038 2412.68H436.798Z" fill="#00EC5D"/>
<path d="M660.317 2412.68L704.189 2488.82L748.061 2412.68H819.481L738.879 2535.04L816.76 2654H745.34L704.189 2581.26L663.038 2654H591.278L669.159 2535.04L588.557 2412.68H660.317Z" fill="#00EC5D"/>
<path d="M883.836 2412.68L927.708 2488.82L971.58 2412.68H1043L962.398 2535.04L1040.28 2654H968.859L927.708 2581.26L886.557 2654H814.797L892.678 2535.04L812.076 2412.68H883.836Z" fill="#00EC5D"/>
</g>
</svg>
