<svg width="40" height="40" viewBox="0 0 40 40" fill="none" xmlns="http://www.w3.org/2000/svg">
<path d="M28.3333 0H11.6667C5.23333 0 0 5.23333 0 11.6667V28.3333C0 34.7667 5.23333 40 11.6667 40H28.3333C34.7667 40 40 34.7667 40 28.3333V11.6667C40 5.23333 34.7667 0 28.3333 0ZM36.6667 28.3333C36.6667 32.9283 32.9283 36.6667 28.3333 36.6667H11.6667C7.07167 36.6667 3.33333 32.9283 3.33333 28.3333V11.6667C3.33333 7.07167 7.07167 3.33333 11.6667 3.33333H28.3333C32.9283 3.33333 36.6667 7.07167 36.6667 11.6667V28.3333Z" fill="#002135" fill-opacity="0.5"/>
<path d="M19.9999 10.8334C14.9458 10.8334 10.8333 14.9459 10.8333 20C10.8333 25.0542 14.9458 29.1667 19.9999 29.1667C25.0541 29.1667 29.1666 25.0542 29.1666 20C29.1666 14.9459 25.0541 10.8334 19.9999 10.8334ZM19.9999 25.8334C16.7833 25.8334 14.1666 23.2167 14.1666 20C14.1666 16.7834 16.7833 14.1667 19.9999 14.1667C23.2166 14.1667 25.8333 16.7834 25.8333 20C25.8333 23.2167 23.2166 25.8334 19.9999 25.8334Z" fill="#002135" fill-opacity="0.5"/>
<path d="M30.8333 6.66663C29.4549 6.66663 28.3333 7.78829 28.3333 9.16663C28.3333 10.545 29.4549 11.6666 30.8333 11.6666C32.2116 11.6666 33.3333 10.545 33.3333 9.16663C33.3333 7.78829 32.2116 6.66663 30.8333 6.66663Z" fill="#002135" fill-opacity="0.5"/>
</svg>
