<svg width="29" height="29" viewBox="0 0 29 29" fill="none" xmlns="http://www.w3.org/2000/svg">
<path d="M26.9497 20.7173V24.4808C26.9511 24.8302 26.8795 25.176 26.7396 25.4961C26.5996 25.8163 26.3943 26.1036 26.1369 26.3398C25.8794 26.576 25.5755 26.7558 25.2445 26.8678C24.9135 26.9797 24.5628 27.0213 24.2149 26.9898C20.3546 26.5704 16.6465 25.2513 13.3885 23.1385C10.3574 21.2124 7.78759 18.6426 5.86151 15.6115C3.74137 12.3387 2.42196 8.6126 2.01018 4.73494C1.97883 4.38803 2.02006 4.03839 2.13124 3.70828C2.24242 3.37818 2.42112 3.07484 2.65596 2.81758C2.89079 2.56032 3.17663 2.35478 3.49525 2.21404C3.81388 2.0733 4.15832 2.00045 4.50664 2.00012H8.27015C8.87897 1.99413 9.46919 2.20972 9.93081 2.60671C10.3924 3.00371 10.6939 3.55501 10.7792 4.15787C10.938 5.36227 11.2326 6.54484 11.6573 7.68302C11.8261 8.13204 11.8626 8.62003 11.7626 9.08917C11.6625 9.55831 11.4301 9.98893 11.0928 10.33L9.49956 11.9232C11.2854 15.0639 13.8859 17.6644 17.0266 19.4503L18.6198 17.857C18.9609 17.5197 19.3915 17.2873 19.8607 17.1872C20.3298 17.0872 20.8178 17.1237 21.2668 17.2925C22.405 17.7172 23.5875 18.0118 24.792 18.1707C25.4013 18.2566 25.9579 18.5636 26.3557 19.0331C26.7536 19.5027 26.965 20.1021 26.9497 20.7173Z" stroke="white" stroke-width="3" stroke-linecap="round" stroke-linejoin="round"/>
</svg>
