<svg width="1438" height="262" viewBox="0 0 1438 262" fill="none" xmlns="http://www.w3.org/2000/svg">
<path d="M-14 8.53793V8.53793C243.915 51.0626 506.284 59.6749 766.432 34.1554L954.783 15.679C1115.4 -0.0764307 1277.07 -1.9061 1438 10.2105V10.2105V260.327L735 262L0 260.327L-14 8.53793Z" fill="#002135"/>
<path d="M-1423 8.53812V8.53812C-1174.39 49.9503 -921.415 58.4635 -670.586 33.8582L-439.448 11.1846C-298.01 -2.68982 -155.599 -3.57574 -14 8.53793V8.53793L0 260.327L-1423 90.3296V8.53812Z" fill="#002135"/>
<path d="M-2847 10.209V10.209C-2598.39 51.621 -2345.42 60.134 -2094.59 35.5289L-1892.22 15.6774C-1731.6 -0.0779143 -1569.93 -1.90758 -1409 10.2089V10.2089V92L-2847 92.0001V10.209Z" fill="#002135"/>
</svg>
