<svg width="4314" height="91" viewBox="0 0 4314 91" fill="none" xmlns="http://www.w3.org/2000/svg">
<path d="M2876 8.21043V8.21043C3124.61 49.6227 3377.58 58.1358 3628.41 33.5305L3830.78 13.679C3991.4 -2.07645 4153.07 -3.90612 4314 8.21043V8.21043V90.0019H2876V8.21043Z" fill="#002135"/>
<path d="M1438 8.21056V8.21056C1686.61 49.6228 1939.58 58.1359 2190.41 33.5306L2392.78 13.6791C2553.4 -2.07633 2715.07 -3.90604 2876 8.21043V8.21043V90.0019L1438 90.002V8.21056Z" fill="#002135"/>
<path d="M0 8.20896V8.20896C248.608 49.6209 501.585 58.1339 752.414 33.5288L954.783 13.6774C1115.4 -2.07799 1277.07 -3.90766 1438 8.20883V8.20883V89.9999L0 90V8.20896Z" fill="#002135"/>
</svg>
