<svg width="1438" height="92" viewBox="0 0 1438 92" fill="none" xmlns="http://www.w3.org/2000/svg">
<path d="M0 9.21043V9.21043C248.608 50.6227 501.585 59.1358 752.414 34.5305L954.783 14.679C1115.4 -1.07645 1277.07 -2.90612 1438 9.21043V9.21043V91.0019H0V9.21043Z" fill="#002135"/>
<path d="M-1409 9.21062V9.21062C-1160.39 50.6229 -907.415 59.136 -656.586 34.5307L-425.448 11.8571C-284.01 -2.01732 -141.599 -2.90324 0 9.21043V9.21043V91.0019L-1409 91.0021V9.21062Z" fill="#002135"/>
<path d="M-2847 9.20902V9.20902C-2598.39 50.621 -2345.42 59.134 -2094.59 34.5288L-1892.22 14.6774C-1731.6 -1.07793 -1569.93 -2.9076 -1409 9.20889V9.20889V90.9999L-2847 91.0001V9.20902Z" fill="#002135"/>
</svg>
