<svg width="229" height="30" viewBox="0 0 229 30" fill="none" xmlns="http://www.w3.org/2000/svg">
<path d="M0 20.1816H7.85984C7.85984 22.1569 9.39108 23.1186 11.1214 23.1186C12.7169 23.1186 14.242 22.2703 14.242 20.7589C14.242 19.024 12.0891 18.5218 9.45692 17.8833C5.45886 16.8895 0.356781 15.6645 0.356781 9.36958C0.356781 3.92296 4.3579 0.803833 10.8779 0.803833C17.5082 0.803833 21.3102 4.20777 21.3102 9.83813H13.6694C13.6694 8.08946 12.3663 7.26872 10.7876 7.26872C9.42936 7.26872 8.12628 7.85671 8.12628 9.14754C8.12628 10.7186 10.2103 11.2377 12.8149 11.8915C16.885 12.9419 22.2075 14.3017 22.2075 20.6196C22.2075 26.6603 17.5664 29.7948 11.1443 29.7948C4.37475 29.7871 0 26.2101 0 20.1816Z" fill="#002135"/>
<path d="M46.9232 16.2649V29.1119H39.5733V17.1177C39.5733 14.6586 38.7081 13.403 36.791 13.403C34.5677 13.403 33.1819 14.9817 33.1819 17.7195V29.1119H25.8365V0.0750732H33.1865V9.17828C34.7972 7.87062 36.8065 7.15262 38.8812 7.14327C43.775 7.14633 46.9232 10.7356 46.9232 16.2649Z" fill="#002135"/>
<path d="M136.439 29.8101C128.018 29.8101 121.74 23.5795 121.74 15.3077C121.74 6.99006 128.018 0.760986 136.439 0.760986C143.687 0.760986 149.302 5.54457 150.424 12.5515H142.705C141.756 9.71566 139.367 7.87511 136.456 7.87511C132.541 7.87511 129.668 11.0233 129.668 15.3047C129.668 19.586 132.541 22.6745 136.456 22.6745C139.519 22.6745 141.937 20.6747 142.711 17.6015H150.504C149.453 24.8734 143.806 29.8086 136.439 29.8086V29.8101Z" fill="#00E75B"/>
<path d="M152.546 18.4452C152.546 11.8318 157.552 7.07886 164.508 7.07886C171.44 7.07886 176.469 11.8257 176.469 18.4452C176.469 25.0296 171.44 29.8101 164.508 29.8101C157.552 29.8101 152.546 25.0357 152.546 18.4452ZM164.508 23.2089C167.187 23.2089 169.102 21.2658 169.102 18.4452C169.102 15.6247 167.18 13.68 164.508 13.68C161.836 13.68 159.915 15.6247 159.915 18.4452C159.915 21.2658 161.836 23.2089 164.508 23.2089Z" fill="#00E75B"/>
<path d="M202.396 0.0750732V29.1119H196.958L196.266 27.5271C194.465 29.0367 192.185 29.8544 189.835 29.8331C183.289 29.8331 178.626 25.0741 178.626 18.4453C178.626 11.8166 183.289 7.07895 189.835 7.07895C191.706 7.0644 193.544 7.5776 195.136 8.55966V0.0750732H202.396ZM195.59 18.4499C195.59 15.6631 193.567 13.5668 190.814 13.5668C188.06 13.5668 186.039 15.6631 186.039 18.4499C186.039 21.2368 188.062 23.3315 190.814 23.3315C193.565 23.3315 195.59 21.2307 195.59 18.4453V18.4499Z" fill="#00E75B"/>
<path d="M228.989 18.2431C228.985 18.8942 228.934 19.5442 228.836 20.1878H212.997C213.477 22.6378 215.032 23.901 217.351 23.901C219.068 23.901 220.503 23.1492 221.209 21.8997H228.522C227.02 26.769 222.703 29.8101 217.344 29.8101C210.687 29.8101 205.757 24.9453 205.757 18.4284C205.757 11.8885 210.648 7.07886 217.344 7.07886C224.221 7.07886 228.981 11.9788 228.981 18.2431H228.989ZM213.127 16.1193H221.751C221.106 13.9878 219.569 12.8363 217.351 12.8363C215.209 12.8363 213.719 14 213.127 16.1193Z" fill="#00E75B"/>
<path d="M104.262 20.831C104.391 21.423 104.55 22.0082 104.738 22.5842C105.282 24.2423 106.059 25.8148 107.046 27.2545C103.314 25.0035 99.9448 22.2002 97.0529 18.9399V13.2039C99.6528 9.20089 103.107 5.82371 107.168 3.31513C106.589 3.94141 105.464 5.34708 105.193 7.40047C105.114 8.00533 105.114 8.61779 105.193 9.22264C109.236 4.70235 114.535 1.49115 120.413 0C118.27 2.51582 116.483 4.80196 115.054 6.71754C111.336 11.7323 110.903 13.112 110.955 14.461C111.022 16.202 111.884 17.5005 114.517 20.4941C117.403 23.7764 120.47 26.8947 123.704 29.8346C116.569 28.5072 109.88 25.4121 104.25 20.8325L104.262 20.831Z" fill="#002135"/>
<path d="M96.0699 8.17676C93.8011 9.15571 91.707 10.4978 89.8699 12.1503C88.5714 13.3248 87.4199 14.3645 86.5318 16.1315C85.5181 18.1375 85.437 19.8984 85.3405 22.7281C85.2583 25.1634 85.4312 27.6006 85.8565 29.9999C84.4478 29.464 81.6563 28.1625 79.5784 25.2715C76.0688 20.3884 77.303 14.7366 77.7103 12.8685C78.0564 11.2852 79.0134 7.18146 82.719 3.96586C84.2521 2.6429 86.0364 1.64294 87.965 1.02588C87.3342 1.67359 85.5365 3.69482 85.4201 6.66848C85.3884 7.54094 85.5006 8.41268 85.7524 9.24863C86.8833 8.6906 88.0806 8.27895 89.3156 8.02364C91.5499 7.56594 93.8586 7.61828 96.0699 8.17676Z" fill="#002135"/>
<path d="M68.3759 13.6189C66.3439 13.7169 64.5217 14.2314 63.1543 15.0108L63.6704 15.5283H62.3612C62.154 15.6838 61.9584 15.8542 61.7762 16.0383L62.6858 16.9463H61.0718C60.9234 17.2 60.8111 17.4731 60.738 17.7578L61.9799 18.4637L60.738 19.1696C60.8115 19.452 60.9222 19.7234 61.0673 19.9766H62.6858L61.767 20.8953C61.959 21.0846 62.1637 21.2606 62.3795 21.4221H63.7576L63.2156 21.9672C64.5723 22.7236 66.3699 23.2167 68.3621 23.3116C67.6271 22.9909 66.9443 22.5619 66.3362 22.0392H64.8831L65.6257 21.2965C65.4505 21.0867 65.2928 20.8629 65.1541 20.6274H63.8235L64.7422 19.7086C64.6838 19.5291 64.6393 19.3453 64.609 19.1589L63.384 18.4699L64.609 17.7777C64.6304 17.6491 64.6595 17.5205 64.6917 17.3949L63.825 16.5252H65.0362C65.1828 16.2448 65.3562 15.9792 65.5538 15.732L64.8831 15.0629H66.1678C66.8191 14.463 67.5652 13.9751 68.3759 13.6189Z" fill="#002135"/>
<path d="M61.7671 16.0458C61.7671 16.0458 61.7671 16.0366 61.7763 16.0366L61.7671 16.0458Z" fill="#002135"/>
<path d="M68.5886 7.75436L67.8383 9.40502C66.0021 7.89762 63.6939 7.0845 61.3183 7.10817C54.7953 7.10817 50.1311 11.8106 50.1311 18.4179C50.1311 25.0481 54.7953 29.8072 61.3183 29.8072C63.6557 29.8292 65.9285 29.0402 67.7495 27.5747L68.3773 29.0845H74.0705V7.75436H68.5886ZM69.6774 23.9717C69.3145 24.0023 68.8811 24.0299 68.385 24.0421C65.2228 24.124 62.0904 23.4139 59.2726 21.9765C57.5133 21.0652 55.9109 19.8789 54.5258 18.4623C55.9103 17.043 57.5128 15.854 59.2726 14.9405C62.091 13.5052 65.2233 12.7968 68.385 12.8794C68.8811 12.8794 69.3145 12.9146 69.6774 12.9452V23.9717Z" fill="#002135"/>
</svg>
