<svg width="229" height="30" viewBox="0 0 229 30" fill="none" xmlns="http://www.w3.org/2000/svg">
<path d="M0 20.1815H7.85984C7.85984 22.1568 9.39108 23.1184 11.1214 23.1184C12.7169 23.1184 14.242 22.2701 14.242 20.7588C14.242 19.0239 12.0891 18.5217 9.45692 17.8831C5.45886 16.8894 0.356781 15.6644 0.356781 9.36945C0.356781 3.92284 4.3579 0.803711 10.8779 0.803711C17.5082 0.803711 21.3102 4.20765 21.3102 9.83801H13.6694C13.6694 8.08934 12.3663 7.2686 10.7876 7.2686C9.42936 7.2686 8.12628 7.85659 8.12628 9.14742C8.12628 10.7185 10.2103 11.2376 12.8149 11.8914C16.885 12.9418 22.2075 14.3016 22.2075 20.6194C22.2075 26.6602 17.5664 29.7946 11.1443 29.7946C4.37475 29.787 0 26.21 0 20.1815Z" fill="#F2F2F2"/>
<path d="M46.9232 16.265V29.1121H39.5733V17.1179C39.5733 14.6587 38.7081 13.4031 36.791 13.4031C34.5677 13.4031 33.1819 14.9818 33.1819 17.7197V29.1121H25.8365V0.0751953H33.1865V9.1784C34.7972 7.87074 36.8065 7.15274 38.8812 7.14339C43.775 7.14645 46.9232 10.7357 46.9232 16.265Z" fill="#F2F2F2"/>
<path d="M136.439 29.8098C128.018 29.8098 121.74 23.5792 121.74 15.3075C121.74 6.98982 128.018 0.760742 136.439 0.760742C143.687 0.760742 149.302 5.54433 150.424 12.5513H142.705C141.756 9.71542 139.367 7.87487 136.456 7.87487C132.541 7.87487 129.668 11.0231 129.668 15.3044C129.668 19.5858 132.541 22.6743 136.456 22.6743C139.519 22.6743 141.937 20.6745 142.711 17.6013H150.504C149.453 24.8731 143.806 29.8083 136.439 29.8083V29.8098Z" fill="#00E75B"/>
<path d="M152.546 18.4455C152.546 11.8321 157.552 7.0791 164.508 7.0791C171.44 7.0791 176.469 11.8259 176.469 18.4455C176.469 25.0298 171.44 29.8103 164.508 29.8103C157.552 29.8103 152.546 25.0359 152.546 18.4455ZM164.508 23.2092C167.187 23.2092 169.102 21.266 169.102 18.4455C169.102 15.6249 167.18 13.6803 164.508 13.6803C161.836 13.6803 159.915 15.6249 159.915 18.4455C159.915 21.266 161.836 23.2092 164.508 23.2092Z" fill="#00E75B"/>
<path d="M202.396 0.0751953V29.1121H196.958L196.266 27.5272C194.465 29.0369 192.185 29.8545 189.835 29.8333C183.289 29.8333 178.626 25.0742 178.626 18.4455C178.626 11.8167 183.289 7.07907 189.835 7.07907C191.706 7.06453 193.544 7.57773 195.136 8.55979V0.0751953H202.396ZM195.59 18.4501C195.59 15.6632 193.567 13.5669 190.814 13.5669C188.06 13.5669 186.039 15.6632 186.039 18.4501C186.039 21.2369 188.062 23.3316 190.814 23.3316C193.565 23.3316 195.59 21.2308 195.59 18.4455V18.4501Z" fill="#00E75B"/>
<path d="M228.989 18.2434C228.985 18.8944 228.934 19.5444 228.836 20.188H212.997C213.477 22.638 215.032 23.9013 217.351 23.9013C219.068 23.9013 220.503 23.1494 221.209 21.8999H228.522C227.02 26.7693 222.703 29.8103 217.344 29.8103C210.687 29.8103 205.757 24.9456 205.757 18.4286C205.757 11.8887 210.648 7.0791 217.344 7.0791C224.221 7.0791 228.981 11.9791 228.981 18.2434H228.989ZM213.127 16.1195H221.751C221.106 13.988 219.569 12.8366 217.351 12.8366C215.209 12.8366 213.719 14.0003 213.127 16.1195Z" fill="#00E75B"/>
<path d="M104.262 20.831C104.391 21.423 104.55 22.0082 104.738 22.5842C105.282 24.2423 106.059 25.8148 107.046 27.2545C103.314 25.0035 99.9448 22.2002 97.0529 18.9399V13.2039C99.6528 9.20089 103.107 5.82371 107.168 3.31513C106.589 3.94141 105.464 5.34708 105.193 7.40047C105.114 8.00533 105.114 8.61779 105.193 9.22264C109.236 4.70235 114.535 1.49115 120.413 0C118.27 2.51582 116.483 4.80196 115.054 6.71754C111.336 11.7323 110.903 13.112 110.955 14.461C111.022 16.202 111.884 17.5005 114.517 20.4941C117.403 23.7764 120.47 26.8947 123.704 29.8346C116.569 28.5072 109.88 25.4121 104.25 20.8325L104.262 20.831Z" fill="#F2F2F2"/>
<path d="M96.0699 8.17676C93.8011 9.15571 91.707 10.4978 89.8699 12.1503C88.5714 13.3248 87.4199 14.3645 86.5318 16.1315C85.5181 18.1375 85.437 19.8984 85.3405 22.7281C85.2583 25.1634 85.4312 27.6006 85.8565 29.9999C84.4478 29.464 81.6563 28.1625 79.5784 25.2715C76.0688 20.3884 77.303 14.7366 77.7103 12.8685C78.0564 11.2852 79.0134 7.18146 82.719 3.96586C84.2521 2.6429 86.0364 1.64294 87.965 1.02588C87.3342 1.67359 85.5365 3.69482 85.4201 6.66848C85.3884 7.54094 85.5006 8.41268 85.7524 9.24863C86.8833 8.6906 88.0806 8.27895 89.3156 8.02364C91.5499 7.56594 93.8586 7.61828 96.0699 8.17676Z" fill="#F2F2F2"/>
<path d="M68.3759 13.6187C66.3439 13.7167 64.5217 14.2311 63.1543 15.0105L63.6704 15.5281H62.3612C62.154 15.6835 61.9584 15.854 61.7762 16.038L62.6858 16.946H61.0718C60.9234 17.1997 60.8111 17.4729 60.738 17.7576L61.9799 18.4635L60.738 19.1694C60.8115 19.4518 60.9222 19.7231 61.0673 19.9764H62.6858L61.767 20.8951C61.959 21.0844 62.1637 21.2603 62.3795 21.4218H63.7576L63.2156 21.967C64.5723 22.7234 66.3699 23.2165 68.3621 23.3114C67.6271 22.9906 66.9443 22.5617 66.3362 22.0389H64.8831L65.6257 21.2963C65.4505 21.0865 65.2928 20.8627 65.1541 20.6271H63.8235L64.7422 19.7084C64.6838 19.5288 64.6393 19.3451 64.609 19.1587L63.384 18.4696L64.609 17.7775C64.6304 17.6489 64.6595 17.5203 64.6917 17.3947L63.825 16.5249H65.0362C65.1828 16.2445 65.3562 15.9789 65.5538 15.7318L64.8831 15.0626H66.1678C66.8191 14.4628 67.5652 13.9749 68.3759 13.6187Z" fill="#F2F2F2"/>
<path d="M61.7671 16.0458C61.7671 16.0458 61.7671 16.0366 61.7763 16.0366L61.7671 16.0458Z" fill="#F2F2F2"/>
<path d="M68.5886 7.75411L67.8383 9.40478C66.0021 7.89737 63.6939 7.08426 61.3183 7.10792C54.7953 7.10792 50.1311 11.8104 50.1311 18.4176C50.1311 25.0479 54.7953 29.807 61.3183 29.807C63.6557 29.829 65.9285 29.04 67.7495 27.5744L68.3773 29.0842H74.0705V7.75411H68.5886ZM69.6774 23.9714C69.3145 24.0021 68.8811 24.0296 68.385 24.0419C65.2228 24.1238 62.0904 23.4137 59.2726 21.9762C57.5133 21.065 55.9109 19.8787 54.5258 18.4621C55.9103 17.0427 57.5128 15.8538 59.2726 14.9402C62.091 13.505 65.2233 12.7965 68.385 12.8792C68.8811 12.8792 69.3145 12.9144 69.6774 12.945V23.9714Z" fill="#F2F2F2"/>
</svg>
