<svg width="24" height="29" viewBox="0 0 24 29" fill="none" xmlns="http://www.w3.org/2000/svg">
<path d="M17 4.5H19.5C20.163 4.5 20.7989 4.76339 21.2678 5.23223C21.7366 5.70107 22 6.33696 22 7V24.5C22 25.163 21.7366 25.7989 21.2678 26.2678C20.7989 26.7366 20.163 27 19.5 27H4.5C3.83696 27 3.20107 26.7366 2.73223 26.2678C2.26339 25.7989 2 25.163 2 24.5V7C2 6.33696 2.26339 5.70107 2.73223 5.23223C3.20107 4.76339 3.83696 4.5 4.5 4.5H7" stroke="white" stroke-width="3" stroke-linecap="round" stroke-linejoin="round"/>
<path d="M15.75 2H8.25C7.55964 2 7 2.55964 7 3.25V5.75C7 6.44036 7.55964 7 8.25 7H15.75C16.4404 7 17 6.44036 17 5.75V3.25C17 2.55964 16.4404 2 15.75 2Z" stroke="white" stroke-width="3" stroke-linecap="round" stroke-linejoin="round"/>
</svg>
