<?xml version="1.0" standalone="no"?>
<!DOCTYPE svg PUBLIC "-//W3C//DTD SVG 20010904//EN"
 "http://www.w3.org/TR/2001/REC-SVG-20010904/DTD/svg10.dtd">
<svg version="1.0" xmlns="http://www.w3.org/2000/svg"
 width="180.000000pt" height="180.000000pt" viewBox="0 0 180.000000 180.000000"
 preserveAspectRatio="xMidYMid meet">
<metadata>
Created by potrace 1.16, written by Peter Selinger 2001-2019
</metadata>
<g transform="translate(0.000000,180.000000) scale(0.100000,-0.100000)"
fill="#000000" stroke="none">
<path d="M896 1645 c-44 -19 -67 -38 -208 -180 -168 -168 -178 -179 -178 -193
0 -6 -14 -25 -30 -42 -17 -17 -30 -39 -30 -49 0 -10 -11 -26 -25 -35 -15 -10
-25 -26 -25 -40 0 -13 -14 -37 -30 -54 -21 -22 -30 -42 -30 -65 0 -22 -8 -41
-24 -56 -18 -17 -26 -38 -31 -84 -4 -33 -18 -81 -31 -105 -23 -43 -24 -54 -24
-243 0 -198 0 -199 22 -204 13 -3 319 -4 680 -3 523 2 660 6 670 16 9 9 13 48
12 140 -1 137 -40 364 -74 432 -10 19 -21 49 -24 66 -4 17 -18 46 -32 65 -13
18 -24 40 -24 48 0 9 -14 36 -30 60 -17 24 -30 48 -30 54 0 5 -12 25 -27 43
-74 90 -83 102 -83 109 0 20 -343 338 -361 334 -2 0 -17 -6 -33 -14z m-58
-552 c10 -10 35 -31 57 -47 37 -28 39 -29 49 -11 6 10 21 29 33 42 48 50 143
13 143 -55 0 -16 7 -35 15 -42 13 -11 21 -9 45 9 l30 21 39 -19 c38 -20 51
-42 51 -89 0 -23 19 -35 72 -46 20 -5 30 -14 34 -34 4 -15 17 -39 29 -54 13
-15 26 -44 30 -65 3 -21 15 -52 25 -68 24 -39 35 -122 21 -157 -14 -37 -28
-35 -47 5 -9 17 -38 50 -65 72 -44 36 -49 44 -49 81 0 55 -20 73 -55 50 -22
-15 -31 -15 -63 -4 -48 16 -59 25 -75 57 -15 32 -56 39 -92 15 -24 -16 -27
-15 -66 10 -22 15 -45 38 -51 51 -6 14 -14 25 -18 25 -3 0 -31 -22 -62 -50
-64 -57 -110 -66 -143 -30 -12 13 -29 20 -44 18 -21 -2 -27 -10 -31 -35 -3
-18 -16 -40 -32 -52 -22 -18 -35 -20 -87 -15 l-61 7 0 -37 c0 -47 -18 -81 -67
-129 -33 -32 -41 -35 -56 -25 -26 20 -12 159 19 194 13 14 24 36 24 49 0 13
10 36 23 52 13 15 30 40 40 55 12 20 26 28 54 30 37 3 38 4 43 49 8 64 24 81
69 73 20 -4 46 -16 59 -28 23 -21 24 -21 38 -2 8 11 14 38 14 60 0 51 9 64 46
76 41 12 42 12 62 -7z"/>
</g>
</svg>
