<svg width="40" height="40" viewBox="0 0 40 40" fill="none" xmlns="http://www.w3.org/2000/svg">
<path d="M37.3169 10.4501C35.5284 7.38582 33.1025 4.95982 30.0385 3.17156C26.974 1.38321 23.6286 0.489258 19.9997 0.489258C16.3713 0.489258 13.0247 1.38348 9.96085 3.17156C6.89656 4.95973 4.47074 7.38582 2.6823 10.4501C0.894131 13.5143 0 16.8604 0 20.4884C0 24.8464 1.27147 28.7652 3.81504 32.2459C6.35833 35.7268 9.64389 38.1355 13.6714 39.4722C14.1403 39.5592 14.4873 39.498 14.713 39.2901C14.9387 39.082 15.0515 38.8213 15.0515 38.5092C15.0515 38.4571 15.047 37.9885 15.0383 37.103C15.0294 36.2174 15.0252 35.4449 15.0252 34.7857L14.4262 34.8893C14.0443 34.9593 13.5625 34.9889 12.9809 34.9805C12.3995 34.9724 11.796 34.9115 11.1711 34.7982C10.546 34.6859 9.9645 34.4255 9.42627 34.0175C8.88831 33.6096 8.50642 33.0755 8.28067 32.4163L8.02027 31.817C7.84669 31.4181 7.57343 30.9749 7.20011 30.4891C6.82679 30.0029 6.44927 29.6732 6.06737 29.4996L5.88504 29.3691C5.76355 29.2824 5.65082 29.1778 5.54656 29.0564C5.4424 28.935 5.36442 28.8135 5.31234 28.6918C5.26016 28.57 5.3034 28.4702 5.44249 28.3918C5.58159 28.3135 5.83296 28.2754 6.19771 28.2754L6.71834 28.3532C7.06557 28.4228 7.49508 28.6307 8.00741 28.9781C8.51946 29.3253 8.94039 29.7766 9.2703 30.3318C9.6698 31.0438 10.1511 31.5863 10.7156 31.9597C11.2797 32.333 11.8483 32.5193 12.4211 32.5193C12.9939 32.5193 13.4887 32.4759 13.9055 32.3895C14.3219 32.3027 14.7125 32.1722 15.0773 31.9987C15.2335 30.8351 15.6589 29.9411 16.3531 29.3162C15.3637 29.2122 14.4741 29.0556 13.6839 28.8474C12.8942 28.6389 12.0782 28.3005 11.2363 27.8313C10.394 27.3628 9.69524 26.781 9.13987 26.0869C8.5844 25.3924 8.12853 24.4806 7.77291 23.3525C7.4171 22.2238 7.23914 20.9219 7.23914 19.4463C7.23914 17.3453 7.92504 15.5574 9.29657 14.0816C8.65408 12.5021 8.71474 10.7313 9.47871 8.76956C9.98219 8.61314 10.7288 8.73053 11.7183 9.12099C12.7079 9.51165 13.4325 9.8463 13.8927 10.1238C14.353 10.4011 14.7217 10.6362 14.9996 10.8268C16.6144 10.3756 18.2809 10.1499 19.9995 10.1499C21.7181 10.1499 23.3849 10.3756 24.9999 10.8268L25.9894 10.2021C26.6661 9.78528 27.4652 9.40329 28.3848 9.05605C29.3049 8.709 30.0085 8.61341 30.4948 8.76984C31.2758 10.7317 31.3454 12.5023 30.7027 14.0819C32.0741 15.5577 32.7603 17.346 32.7603 19.4466C32.7603 20.9222 32.5817 22.2282 32.2265 23.3655C31.8707 24.503 31.4109 25.4138 30.8469 26.0999C30.2822 26.7859 29.579 27.3631 28.7371 27.8316C27.8951 28.3004 27.0788 28.6388 26.2891 28.8473C25.499 29.0558 24.6094 29.2125 23.62 29.3167C24.5224 30.0976 24.9737 31.3303 24.9737 33.0142V38.5084C24.9737 38.8206 25.0823 39.0812 25.2995 39.2894C25.5165 39.4973 25.8592 39.5585 26.328 39.4713C30.3561 38.1348 33.6417 35.7261 36.1849 32.2452C38.7278 28.7645 39.9997 24.8457 39.9997 20.4877C39.9988 16.8601 39.1042 13.5143 37.3169 10.4501Z" fill="#00E75B"/>
</svg>
