<svg width="40" height="40" viewBox="0 0 40 40" fill="none" xmlns="http://www.w3.org/2000/svg">
<path d="M28.3333 0H11.6667C5.23333 0 0 5.23333 0 11.6667V28.3333C0 34.7667 5.23333 40 11.6667 40H28.3333C34.7667 40 40 34.7667 40 28.3333V11.6667C40 5.23333 34.7667 0 28.3333 0ZM36.6667 28.3333C36.6667 32.9283 32.9283 36.6667 28.3333 36.6667H11.6667C7.07167 36.6667 3.33333 32.9283 3.33333 28.3333V11.6667C3.33333 7.07167 7.07167 3.33333 11.6667 3.33333H28.3333C32.9283 3.33333 36.6667 7.07167 36.6667 11.6667V28.3333Z" fill="#00E75B"/>
<path d="M19.9999 10.8335C14.9458 10.8335 10.8333 14.946 10.8333 20.0002C10.8333 25.0543 14.9458 29.1668 19.9999 29.1668C25.0541 29.1668 29.1666 25.0543 29.1666 20.0002C29.1666 14.946 25.0541 10.8335 19.9999 10.8335ZM19.9999 25.8335C16.7833 25.8335 14.1666 23.2168 14.1666 20.0002C14.1666 16.7835 16.7833 14.1668 19.9999 14.1668C23.2166 14.1668 25.8333 16.7835 25.8333 20.0002C25.8333 23.2168 23.2166 25.8335 19.9999 25.8335Z" fill="#00E75B"/>
<path d="M30.8333 6.6665C29.4549 6.6665 28.3333 7.78817 28.3333 9.1665C28.3333 10.5448 29.4549 11.6665 30.8333 11.6665C32.2116 11.6665 33.3333 10.5448 33.3333 9.1665C33.3333 7.78817 32.2116 6.6665 30.8333 6.6665Z" fill="#00E75B"/>
</svg>
