<svg width="28" height="23" viewBox="0 0 28 23" fill="none" xmlns="http://www.w3.org/2000/svg">
<path d="M17.313 0.968998C16.758 0.972998 16.207 0.999998 15.625 1.156C14.991 1.3281 14.3894 1.60273 13.844 1.969C13.078 1.519 12.336 1.149 11.625 1.062C10.742 0.952998 9.922 1.012 8.969 1.032C7.839 1.055 7.102 1.632 5.906 2.094C4.711 2.554 3.172 3 1 3H0V12.625L0.563 12.906L2.406 13.813L8.969 21.125L9 21.156C9.75 21.898 10.762 22.082 11.656 22.031C12.551 21.981 13.391 21.719 14.062 21.313C15.539 20.422 19.562 17.625 19.562 17.625L19.656 17.562L19.719 17.5C20.195 17.027 20.434 16.45 20.594 15.844L24.437 13.906L27.312 12.938L28 12.718V3H27C25.319 3.01149 23.6522 2.6928 22.094 2.062C20.898 1.595 20.172 1.024 19.03 0.999998C18.42 0.987998 17.866 0.964998 17.312 0.968998H17.313ZM17.343 2.969C17.793 2.965 18.313 2.989 18.969 3C19.074 3.004 20.035 3.414 21.375 3.938C22.508 4.383 24.082 4.778 26 4.906V11.281L23.687 12.063H23.625L23.562 12.093L20.532 13.625C20.3712 13.1609 20.1158 12.7353 19.782 12.375L19.719 12.281L15.469 7.063L14.844 6.281L14.062 6.906L11.375 9.094C10.473 9.719 9.742 9.539 9 9.188C8.785 9.086 8.797 9.055 8.625 8.938L13.188 5.156L13.25 5.094C14.605 3.75 15.438 3.285 16.156 3.094C16.516 2.996 16.895 2.973 17.344 2.969H17.343ZM10.376 3C10.7097 2.98742 11.0438 2.99778 11.376 3.031C11.638 3.062 11.935 3.285 12.189 3.375C12.087 3.469 12.013 3.523 11.907 3.625L11.845 3.688L6.376 8.218L5.532 8.906L6.282 9.687C6.282 9.687 7.005 10.469 8.126 11C9.247 11.531 10.978 11.832 12.532 10.75L12.595 10.687L14.532 9.094L18.22 13.625L18.251 13.688L18.282 13.718C18.942 14.371 18.927 15.398 18.282 16.063C18.274 16.07 18.29 16.086 18.282 16.093C18.274 16.098 18.142 16.176 18.126 16.188L16.813 14.406L15.188 15.594L16.47 17.312C15.95 17.664 15.716 17.848 15.157 18.219L13.814 16.406L12.188 17.594L13.47 19.312C13.356 19.382 13.122 19.539 13.032 19.594C12.716 19.785 12.106 20 11.563 20.031C11.052 20.059 10.661 19.941 10.47 19.781L10.439 19.75L3.751 12.344L3.626 12.187L2 11.375V4.906C3.91 4.781 5.496 4.402 6.625 3.969C7.961 3.457 8.915 3.035 9.031 3.031L10.375 3H10.376Z" fill="black"/>
</svg>
