<svg width="25" height="25" viewBox="0 0 25 25" fill="none" xmlns="http://www.w3.org/2000/svg">
<path d="M3.125 8.3335L11.3438 13.8127C11.6861 14.0411 12.0884 14.163 12.5 14.163C12.9116 14.163 13.3139 14.0411 13.6562 13.8127L21.875 8.3335H3.125ZM5.20833 19.7918H19.7917C20.3442 19.7918 20.8741 19.5723 21.2648 19.1816C21.6555 18.7909 21.875 18.261 21.875 17.7085V7.29183C21.875 6.7393 21.6555 6.20939 21.2648 5.81869C20.8741 5.42799 20.3442 5.2085 19.7917 5.2085H5.20833C4.6558 5.2085 4.12589 5.42799 3.73519 5.81869C3.34449 6.20939 3.125 6.7393 3.125 7.29183V17.7085C3.125 18.261 3.34449 18.7909 3.73519 19.1816C4.12589 19.5723 4.6558 19.7918 5.20833 19.7918Z" stroke="#8897A1" stroke-width="2" stroke-linecap="round" stroke-linejoin="round"/>
</svg>
