<svg width="25" height="25" viewBox="0 0 25 25" fill="none" xmlns="http://www.w3.org/2000/svg">
<path d="M12.5 10.4167C13.699 10.4167 14.5834 9.53333 14.5834 8.33333C14.5834 7.13333 13.699 6.25 12.5 6.25C11.3021 6.25 10.4167 7.13333 10.4167 8.33333C10.4167 9.53333 11.3021 10.4167 12.5 10.4167ZM12.5 11.4583C10.199 11.4583 8.33337 13.1375 8.33337 15.2083V15.6104H16.6667V15.2083C16.6667 13.1375 14.8011 11.4583 12.5 11.4583Z" fill="#8897A1"/>
<path d="M19.7917 2.0835H5.20833C4.05937 2.0835 3.125 3.01787 3.125 4.16683V17.7085C3.125 18.8575 4.05937 19.7918 5.20833 19.7918H9.375L12.5 22.9168L15.625 19.7918H19.7917C20.9406 19.7918 21.875 18.8575 21.875 17.7085V4.16683C21.875 3.01787 20.9406 2.0835 19.7917 2.0835ZM14.5833 17.7085L12.5 19.7918L10.4167 17.7085H5.20833V4.16683H19.7917L19.7938 17.7085H14.5833Z" fill="#8897A1"/>
</svg>
