<svg width="92" height="92" viewBox="0 0 92 92" fill="none" xmlns="http://www.w3.org/2000/svg">
<g filter="url(#filter0_f)">
<path d="M6 86L11.6286 65.4629C8.16776 59.4534 6.32318 52.627 6.34221 45.6483C6.34221 23.7797 24.141 6 46.0095 6C56.6203 6 66.5847 10.1265 74.0582 17.6187C81.5503 25.1108 85.6768 35.0753 85.6578 45.6673C85.6578 67.5355 67.8587 85.3156 45.9905 85.3156H45.9715C39.335 85.3156 32.8124 83.6423 27.0125 80.4853L6 86ZM28.0014 73.2973L29.1993 74.0201C34.2576 77.0245 40.0575 78.6027 45.9715 78.6217H45.9905C64.1508 78.6217 78.9449 63.8464 78.9449 45.6673C78.9449 36.8627 75.5221 28.591 69.304 22.3535C63.0858 16.1163 54.7947 12.6936 45.9905 12.6936C27.8111 12.6936 13.0168 27.4689 13.0168 45.6479C13.0168 51.8664 14.7472 57.9324 18.056 63.181L18.8356 64.436L15.508 76.5871L28.0014 73.2973Z" fill="black" fill-opacity="0.24"/>
</g>
<path d="M7.79932 83.8802L13.1703 64.2926C9.85841 58.5473 8.11619 52.0318 8.11856 45.4003C8.11856 24.5544 25.0958 7.59622 45.9223 7.59622C56.0448 7.59622 65.5289 11.54 72.6651 18.6762C79.8012 25.8127 83.7266 35.3154 83.7266 45.419C83.7266 66.2645 66.7494 83.2227 45.9226 83.2227H45.9039C39.5748 83.2227 33.3587 81.6264 27.8374 78.6217L7.79932 83.8805V83.8802Z" fill="url(#paint0_linear)"/>
<path d="M6.42847 85.2509L11.9871 64.9688C8.56932 59.0344 6.74738 52.2923 6.76641 45.4002C6.76641 23.8034 24.3444 6.24409 45.9416 6.24409C56.4204 6.24409 66.2608 10.3191 73.6418 17.7184C81.0408 25.1177 85.1161 34.9584 85.0974 45.4189C85.0974 67.0158 67.5194 84.5751 45.9222 84.5751H45.9038C39.3623 84.5725 32.9255 82.9326 27.1801 79.8048L6.42847 85.2513V85.2509ZM28.1566 72.706L29.3397 73.4197C34.3354 76.387 40.063 77.9458 45.9038 77.9645H45.9226C63.8572 77.9645 78.4681 63.3726 78.4681 45.4189C78.4681 36.7239 75.0877 28.5546 68.9467 22.3948C62.8056 16.2351 54.6175 12.8547 45.9226 12.8547C27.9689 12.8547 13.3583 27.4466 13.3583 45.4002C13.3583 51.5413 15.067 57.5321 18.3349 62.7151L19.1049 63.9546L15.8184 75.9549L28.1566 72.706Z" fill="white"/>
<path d="M36.1385 29.0054C35.4059 27.3714 34.6358 27.3337 33.9412 27.315C33.3779 27.2963 32.7207 27.2963 32.0632 27.2963C31.406 27.2963 30.3541 27.5404 29.4528 28.5168C28.5512 29.4936 26.0347 31.8599 26.0347 36.6865C26.0347 41.4939 29.5467 46.1512 30.0349 46.8084C30.5231 47.4659 36.8144 57.6633 46.7489 61.5884C55.0121 64.8562 56.7025 64.1987 58.4864 64.0297C60.2893 63.8608 64.2708 61.6635 65.097 59.3724C65.9044 57.0812 65.9044 55.1281 65.6603 54.715C65.4162 54.3016 64.759 54.0578 63.7823 53.5693C62.8058 53.081 57.9982 50.7148 57.0969 50.3768C56.1953 50.0389 55.5381 49.8886 54.8996 50.8651C54.2421 51.8415 52.3644 54.0388 51.8007 54.6963C51.2374 55.3535 50.6553 55.4286 49.6786 54.9404C48.7021 54.4522 45.5471 53.419 41.8101 50.0763C38.8991 47.4846 36.9273 44.2732 36.3636 43.2968C35.8002 42.3203 36.3075 41.7941 36.7957 41.3062C37.2275 40.8741 37.7721 40.1605 38.2607 39.5971C38.7489 39.0338 38.9179 38.6207 39.2371 37.9632C39.5563 37.306 39.4061 36.7426 39.162 36.2544C38.9179 35.7659 37.0024 30.9395 36.1385 29.0054Z" fill="white"/>
<defs>
<filter id="filter0_f" x="0" y="0" width="91.6579" height="92" filterUnits="userSpaceOnUse" color-interpolation-filters="sRGB">
<feFlood flood-opacity="0" result="BackgroundImageFix"/>
<feBlend mode="normal" in="SourceGraphic" in2="BackgroundImageFix" result="shape"/>
<feGaussianBlur stdDeviation="3" result="effect1_foregroundBlur"/>
</filter>
<linearGradient id="paint0_linear" x1="45.7615" y1="83.8752" x2="45.7615" y2="7.59164" gradientUnits="userSpaceOnUse">
<stop stop-color="#20B038"/>
<stop offset="1" stop-color="#60D66A"/>
</linearGradient>
</defs>
</svg>
