<svg width="1440" height="90" viewBox="0 0 1440 90" fill="none" xmlns="http://www.w3.org/2000/svg">
<path d="M1440.01 8.20895V8.20895C1191.05 49.6214 937.73 58.1346 686.554 33.5298L483.893 13.6775C323.054 -2.07805 161.154 -3.90769 0 8.20895V8.20895V90H1440.01V8.20895Z" fill="#005182"/>
<path d="M2880 8.20914V8.20914C2631.04 49.6216 2377.72 58.1348 2126.55 33.5301L1923.88 13.6776C1763.05 -2.07789 1601.15 -3.90751 1439.99 8.20914V8.20914V90.0002H2880V8.20914Z" fill="#005182"/>
<path d="M4320 8.20908V8.20908C4071.04 49.6215 3817.72 58.1347 3566.55 33.5298L3363.89 13.6776C3203.05 -2.07792 3041.15 -3.90755 2880 8.20914V8.20914V90.0002L4320 90.0001V8.20908Z" fill="#005182"/>
</svg>
